<svg width="183" height="35" viewBox="0 0 183 35" fill="none" xmlns="http://www.w3.org/2000/svg">
<path d="M0 2.22461H18.3498V6.22885H4.15577V16.1949H16.5938V20.2288H4.15577V33.517H0V2.22461Z" fill="#1E150F"/>
<path d="M28.3002 33.9619C26.6613 33.9619 25.1394 33.606 23.7932 32.8941C22.447 32.1823 21.3641 31.1145 20.574 29.7204C19.7545 28.2967 19.3741 26.5763 19.3741 24.5594C19.3741 22.5424 19.7838 20.7924 20.6032 19.3687C21.4227 17.9153 22.5348 16.8179 23.9395 16.017C25.3443 15.2458 26.8661 14.8602 28.505 14.8602C30.1439 14.8602 31.5487 15.2458 32.7193 16.017C33.8607 16.7882 34.7387 17.678 35.2947 18.7162L35.0313 19.3687L35.4118 15.6018H39.0993V33.5467H35.1191V28.8602L35.5874 29.8984C35.4411 30.195 35.1777 30.5509 34.7679 30.9958C34.3582 31.4407 33.8607 31.8857 33.2461 32.3602C32.6315 32.8348 31.8999 33.1907 31.0804 33.517C30.2903 33.8136 29.3537 33.9619 28.3002 33.9619ZM29.3537 30.6399C30.3488 30.6399 31.256 30.4619 32.0462 30.0763C32.8364 29.6907 33.5095 29.1568 34.0363 28.4746C34.5631 27.7924 34.9143 26.9619 35.1191 26.0424V22.5424C34.885 21.6823 34.5046 20.9111 33.9192 20.2585C33.3632 19.606 32.6608 19.1018 31.8706 18.7458C31.0804 18.3899 30.2025 18.2119 29.2659 18.2119C28.2124 18.2119 27.2173 18.4492 26.3394 18.9831C25.4614 19.4873 24.7297 20.2289 24.2029 21.1484C23.6762 22.0679 23.4128 23.1653 23.4128 24.3814C23.4128 25.5382 23.7054 26.606 24.2322 27.5551C24.759 28.5043 25.4906 29.2458 26.3979 29.8094C27.3344 30.3433 28.3002 30.6399 29.3537 30.6399Z" fill="#1E150F"/>
<path d="M60.3464 31.8559C59.5562 32.5084 58.5905 33.0423 57.4784 33.4279C56.3663 33.8135 55.2542 33.9915 54.142 33.9915C52.2398 33.9915 50.5423 33.6059 49.079 32.8347C47.6157 32.0635 46.4744 30.9661 45.6257 29.5423C44.8062 28.1186 44.3965 26.4576 44.3965 24.5593C44.3965 22.661 44.8355 21 45.7135 19.6059C46.5914 18.2118 47.7328 17.1144 49.1668 16.3728C50.5716 15.6017 52.1227 15.2161 53.7616 15.2161C55.1664 15.2161 56.4248 15.4237 57.5369 15.8093C58.649 16.1949 59.644 16.7584 60.4635 17.4703L58.4441 20.0805C57.9466 19.6949 57.332 19.3389 56.5711 19.0127C55.8102 18.6864 54.9908 18.5084 54.0835 18.5084C53.0299 18.5084 52.0642 18.7754 51.1862 19.3093C50.3082 19.8432 49.6351 20.555 49.1376 21.4745C48.64 22.394 48.3767 23.4025 48.3767 24.5593C48.3767 25.6864 48.64 26.7245 49.1376 27.644C49.6644 28.5635 50.3667 29.3051 51.274 29.839C52.1812 30.4025 53.2348 30.6695 54.4347 30.6695C55.1664 30.6695 55.8687 30.5508 56.5126 30.3135C57.1564 30.0762 57.7418 29.75 58.2393 29.3644L60.3464 31.8559Z" fill="#1E150F"/>
<path d="M73.6917 33.9619C71.6723 33.9619 69.9164 33.5467 68.4823 32.7162C67.019 31.8857 65.9069 30.7585 65.1167 29.3348C64.3266 27.9111 63.9168 26.2797 63.9168 24.4111C63.9168 22.6611 64.3558 21.0594 65.2631 19.606C66.1703 18.1526 67.341 16.9958 68.8335 16.1357C70.3261 15.2755 71.965 14.8306 73.7795 14.8306C76.1207 14.8306 78.0523 15.5128 79.6034 16.9068C81.1545 18.3009 82.2081 20.1992 82.7641 22.6314L68.1311 27.8221L67.1946 25.4492L79.1351 21.0001L78.3157 21.5933C77.9645 20.6441 77.4084 19.8136 76.6183 19.1314C75.8281 18.4492 74.7745 18.0933 73.4868 18.0933C72.404 18.0933 71.4382 18.3602 70.5895 18.8645C69.7408 19.3984 69.0969 20.1102 68.5994 21.0001C68.1019 21.9195 67.8677 22.9873 67.8677 24.1738C67.8677 25.3899 68.1311 26.4577 68.6287 27.4365C69.1262 28.3857 69.8286 29.1272 70.7358 29.6611C71.643 30.195 72.6381 30.4619 73.7795 30.4619C74.5404 30.4619 75.3013 30.3136 76.0329 30.017C76.7646 29.7204 77.4377 29.3645 78.1108 28.8899L79.896 31.8857C79.0181 32.4789 78.023 32.9831 76.9109 33.3687C75.8281 33.784 74.7452 33.9619 73.6917 33.9619Z" fill="#1E150F"/>
<path d="M90.9293 2.22461L101.114 28.1187L98.7726 27.6441L108.401 2.22461H113.318L99.6506 35L85.9541 2.22461H90.9293Z" fill="#1E150F"/>
<path d="M116.625 9.10592C116.625 8.48304 116.888 7.94914 117.386 7.50423C117.883 7.05931 118.439 6.85168 119.025 6.85168C119.61 6.85168 120.166 7.05931 120.634 7.50423C121.132 7.94914 121.366 8.48304 121.366 9.10592C121.366 9.75846 121.132 10.322 120.634 10.7373C120.166 11.1525 119.61 11.3602 119.025 11.3602C118.439 11.3602 117.883 11.1525 117.386 10.7373C116.859 10.2924 116.625 9.75846 116.625 9.10592ZM116.859 15.6017H120.868V33.5466H116.859V15.6017Z" fill="#1E150F"/>
<path d="M129.443 7.71191H133.511V15.6907H138.34V18.8645H133.511V33.5467H129.443V18.8348H126.253V15.6907H129.443V7.71191Z" fill="#1E150F"/>
<path d="M150.456 33.9618C148.817 33.9618 147.295 33.6059 145.949 32.894C144.603 32.1821 143.52 31.1143 142.73 29.7203C141.94 28.3262 141.53 26.6059 141.53 24.5889C141.53 22.572 141.94 20.822 142.759 19.3982C143.579 17.9449 144.691 16.8474 146.096 16.0762C147.5 15.305 149.022 14.9194 150.661 14.9194C152.329 14.9194 153.705 15.305 154.875 16.0762C156.017 16.8474 156.895 17.7372 157.451 18.7754L157.187 19.4279L157.568 15.661H161.255V33.6059H157.275V28.8601L157.743 29.8982C157.597 30.1949 157.334 30.5508 156.924 30.9957C156.514 31.4406 156.017 31.8855 155.402 32.3601C154.788 32.8347 154.085 33.1906 153.236 33.5169C152.476 33.8135 151.51 33.9618 150.456 33.9618ZM151.539 30.6398C152.534 30.6398 153.441 30.4618 154.232 30.0762C155.022 29.6906 155.695 29.1567 156.222 28.4745C156.748 27.7923 157.1 26.9618 157.304 26.0423V22.5423C157.07 21.6821 156.69 20.911 156.105 20.2584C155.548 19.6059 154.846 19.1016 154.056 18.7457C153.266 18.3898 152.388 18.2118 151.451 18.2118C150.368 18.2118 149.373 18.4788 148.495 18.983C147.617 19.5169 146.915 20.2288 146.388 21.1482C145.861 22.0677 145.598 23.1652 145.598 24.411C145.598 25.5677 145.861 26.6059 146.418 27.5847C146.944 28.5338 147.676 29.2754 148.583 29.8389C149.49 30.3432 150.485 30.6398 151.539 30.6398Z" fill="#1E150F"/>
<path d="M168.133 0H172.142V33.5466H168.133V0Z" fill="#1E150F"/>
<path d="M178.991 0H183V33.5466H178.991V0Z" fill="#1E150F"/>
</svg>
