<svg width="494" height="94" viewBox="0 0 494 94" fill="none" xmlns="http://www.w3.org/2000/svg">
<g clip-path="url(#clip0_0_32)">
<path d="M0 6.76599H49.5343V17.3128H11.2183V43.5625H44.7942V54.1874H11.2183V89.1871H0V6.76599Z" fill="#1E150F"/>
<path d="M76.3949 90.359C71.9707 90.359 67.8626 89.4215 64.2285 87.5465C60.5944 85.6716 57.6714 82.8591 55.5383 79.1872C53.3263 75.4373 52.2992 70.9061 52.2992 65.5936C52.2992 60.2812 53.4053 55.6718 55.6173 51.9219C57.8294 48.0938 60.8315 45.2032 64.6236 43.0938C68.4157 41.0626 72.5238 40.047 76.9479 40.047C81.372 40.047 85.1641 41.0626 88.3242 43.0938C91.4053 45.1251 93.7753 47.4688 95.2764 50.2031L94.5653 51.9219L95.5924 42.0001H105.547V89.2653H94.8023V76.9216L96.0664 79.656C95.6714 80.4372 94.9603 81.3747 93.8543 82.5466C92.7483 83.7185 91.4052 84.8903 89.7462 86.1403C88.0872 87.3903 86.1121 88.3278 83.9001 89.1872C81.767 89.9684 79.2389 90.359 76.3949 90.359ZM79.2389 81.6091C81.925 81.6091 84.3741 81.1404 86.5071 80.1247C88.6402 79.1091 90.4572 77.7029 91.8793 75.906C93.3013 74.1092 94.2493 71.9217 94.8023 69.4998V60.2812C94.1703 58.0156 93.1433 55.9843 91.5633 54.2656C90.0622 52.5469 88.1662 51.2188 86.0331 50.2813C83.9001 49.3438 81.53 48.875 79.0019 48.875C76.1579 48.875 73.4718 49.5 71.1017 50.9063C68.7317 52.2344 66.7566 54.1875 65.3346 56.6093C63.9125 59.0312 63.2015 61.9218 63.2015 65.1249C63.2015 68.1717 63.9915 70.9842 65.4136 73.4842C66.8356 75.9842 68.8107 77.9373 71.2597 79.4216C73.7878 80.8279 76.3949 81.6091 79.2389 81.6091Z" fill="#1E150F"/>
<path d="M162.902 84.8122C160.769 86.5309 158.162 87.9372 155.16 88.9528C152.158 89.9684 149.156 90.4371 146.154 90.4371C141.019 90.4371 136.437 89.4215 132.486 87.3903C128.536 85.3591 125.455 82.4685 123.164 78.7185C120.952 74.9685 119.846 70.5936 119.846 65.5936C119.846 60.5937 121.031 56.2187 123.401 52.5469C125.771 48.875 128.852 45.9844 132.723 44.0313C136.516 42.0001 140.703 40.9845 145.127 40.9845C148.919 40.9845 152.316 41.5314 155.318 42.547C158.32 43.5626 161.006 45.047 163.218 46.9219L157.767 53.7969C156.424 52.7813 154.765 51.8438 152.711 50.9844C150.657 50.125 148.445 49.6563 145.996 49.6563C143.152 49.6563 140.545 50.3594 138.175 51.7656C135.805 53.1719 133.988 55.0469 132.644 57.4687C131.301 59.8906 130.59 62.5468 130.59 65.5936C130.59 68.5624 131.301 71.2967 132.644 73.7186C134.067 76.1404 135.963 78.0935 138.412 79.4998C140.861 80.9841 143.705 81.6872 146.944 81.6872C148.919 81.6872 150.815 81.3747 152.553 80.7497C154.291 80.1247 155.871 79.2654 157.214 78.2498L162.902 84.8122Z" fill="#1E150F"/>
<path d="M198.927 90.359C193.476 90.359 188.736 89.2653 184.865 87.0778C180.915 84.8903 177.913 81.9216 175.78 78.1716C173.646 74.4217 172.54 70.1248 172.54 65.203C172.54 60.5937 173.725 56.375 176.175 52.5469C178.624 48.7188 181.784 45.6719 185.813 43.4063C189.842 41.1407 194.266 39.9689 199.164 39.9689C205.484 39.9689 210.698 41.7657 214.886 45.4376C219.073 49.1094 221.917 54.1094 223.418 60.5155L183.917 74.1873L181.389 67.9373L213.622 56.2187L211.409 57.7812C210.461 55.2812 208.96 53.0937 206.827 51.2969C204.694 49.5 201.85 48.5625 198.374 48.5625C195.451 48.5625 192.844 49.2657 190.553 50.5938C188.262 52 186.524 53.875 185.181 56.2187C183.838 58.6406 183.206 61.453 183.206 64.578C183.206 67.7811 183.917 70.5936 185.26 73.1717C186.603 75.6716 188.499 77.6247 190.948 79.031C193.397 80.4372 196.083 81.1403 199.164 81.1403C201.218 81.1403 203.272 80.7497 205.247 79.9685C207.222 79.1872 209.039 78.2497 210.856 76.9998L215.676 84.8903C213.306 86.4528 210.619 87.7809 207.617 88.7965C204.694 89.8903 201.771 90.359 198.927 90.359Z" fill="#1E150F"/>
<path d="M245.459 6.76599L272.952 74.9684L266.632 73.7185L292.624 6.76599H305.896L269.002 93.0933L232.029 6.76599H245.459Z" fill="#1E150F"/>
<path d="M314.823 24.8909C314.823 23.2503 315.534 21.8441 316.877 20.6722C318.22 19.5004 319.721 18.9535 321.301 18.9535C322.882 18.9535 324.383 19.5004 325.647 20.6722C326.99 21.8441 327.622 23.2503 327.622 24.8909C327.622 26.6097 326.99 28.094 325.647 29.1878C324.383 30.2815 322.882 30.8284 321.301 30.8284C319.721 30.8284 318.22 30.2815 316.877 29.1878C315.455 28.0159 314.823 26.6097 314.823 24.8909ZM315.455 42.0002H326.279V89.2653H315.455V42.0002Z" fill="#1E150F"/>
<path d="M349.426 21.219H360.408V42.2344H373.443V50.5937H360.408V89.2652H349.426V50.5156H340.815V42.2344H349.426V21.219Z" fill="#1E150F"/>
<path d="M406.15 90.359C401.725 90.359 397.617 89.4215 393.983 87.5465C390.349 85.6716 387.426 82.8591 385.293 79.1872C383.16 75.5154 382.054 70.9842 382.054 65.6717C382.054 60.3593 383.16 55.75 385.372 52C387.584 48.1719 390.586 45.2813 394.378 43.2501C398.17 41.2189 402.278 40.2032 406.703 40.2032C411.206 40.2032 414.919 41.2189 418.079 43.2501C421.16 45.2813 423.53 47.625 425.031 50.3594L424.32 52.0781L425.347 42.1564H435.301V89.4215H424.557V76.9216L425.821 79.656C425.426 80.4372 424.715 81.3747 423.609 82.5466C422.503 83.7184 421.16 84.8903 419.501 86.1403C417.842 87.3903 415.946 88.3278 413.655 89.1871C411.601 89.9684 408.994 90.359 406.15 90.359ZM409.073 81.6091C411.759 81.6091 414.208 81.1403 416.341 80.1247C418.474 79.1091 420.291 77.7029 421.713 75.906C423.135 74.1092 424.083 71.9217 424.636 69.4998V60.2812C424.004 58.0156 422.977 55.9843 421.397 54.2656C419.896 52.5469 418 51.2188 415.867 50.2813C413.734 49.3438 411.364 48.875 408.836 48.875C405.913 48.875 403.226 49.5782 400.856 50.9063C398.486 52.3125 396.59 54.1875 395.168 56.6093C393.746 59.0312 393.035 61.9218 393.035 65.203C393.035 68.2498 393.746 70.9842 395.247 73.5623C396.669 76.0623 398.644 78.0154 401.093 79.4997C403.542 80.8279 406.229 81.6091 409.073 81.6091Z" fill="#1E150F"/>
<path d="M453.867 0.906738H464.69V89.2653H453.867V0.906738Z" fill="#1E150F"/>
<path d="M483.177 0.906738H494V89.2653H483.177V0.906738Z" fill="#1E150F"/>
</g>
<defs>
<clipPath id="clip0_0_32">
<rect width="494" height="92.1866" fill="white" transform="translate(0 0.906738)"/>
</clipPath>
</defs>
</svg>
