<svg width="200" height="41" viewBox="0 0 200 41" fill="none" xmlns="http://www.w3.org/2000/svg">
<g clip-path="url(#clip0_0_32)">
<path d="M0 3.4491H20.0544V8.02537H4.54182V19.4152H18.1353V24.0254H4.54182V39.2118H0V3.4491Z" fill="#1E150F"/>
<path d="M30.9291 39.7203C29.138 39.7203 27.4748 39.3135 26.0035 38.4999C24.5322 37.6864 23.3487 36.466 22.4852 34.8728C21.5896 33.2457 21.1738 31.2796 21.1738 28.9745C21.1738 26.6694 21.6216 24.6694 22.5171 23.0423C23.4127 21.3813 24.6281 20.1271 26.1634 19.2118C27.6987 18.3304 29.3619 17.8898 31.153 17.8898C32.9441 17.8898 34.4794 18.3304 35.7588 19.2118C37.0062 20.0932 37.9657 21.1101 38.5734 22.2965L38.2856 23.0423L38.7014 18.7372H42.7314V39.2457H38.3815V33.8898L38.8933 35.0762C38.7334 35.4152 38.4455 35.822 37.9977 36.3304C37.5499 36.8389 37.0062 37.3474 36.3345 37.8898C35.6628 38.4321 34.8632 38.8389 33.9676 39.2118C33.1041 39.5508 32.0805 39.7203 30.9291 39.7203ZM32.0805 35.9237C33.168 35.9237 34.1595 35.7203 35.0231 35.2796C35.8867 34.8389 36.6224 34.2288 37.1981 33.4491C37.7738 32.6694 38.1576 31.7203 38.3815 30.6694V26.6694C38.1256 25.6864 37.7098 24.805 37.0702 24.0593C36.4624 23.3135 35.6948 22.7372 34.8312 22.3304C33.9676 21.9237 33.0081 21.7203 31.9846 21.7203C30.8331 21.7203 29.7457 21.9915 28.7861 22.6016C27.8266 23.1779 27.027 24.0254 26.4513 25.0762C25.8755 26.1271 25.5877 27.3813 25.5877 28.7711C25.5877 30.0932 25.9075 31.3135 26.4832 32.3982C27.059 33.483 27.8586 34.3304 28.8501 34.9745C29.8736 35.5847 30.9291 35.9237 32.0805 35.9237Z" fill="#1E150F"/>
<path d="M65.9523 37.3135C65.0887 38.0592 64.0332 38.6694 62.8178 39.1101C61.6024 39.5507 60.387 39.7541 59.1716 39.7541C57.0926 39.7541 55.2375 39.3135 53.6382 38.4321C52.039 37.5507 50.7916 36.2965 49.864 34.6694C48.9685 33.0423 48.5207 31.144 48.5207 28.9745C48.5207 26.805 49.0005 24.9067 49.96 23.3135C50.9195 21.7202 52.1669 20.466 53.7342 19.6185C55.2694 18.7372 56.9646 18.2965 58.7558 18.2965C60.291 18.2965 61.6664 18.5338 62.8818 18.9745C64.0972 19.4152 65.1847 20.0592 66.0803 20.8728L63.8733 23.8558C63.3296 23.4152 62.6579 23.0084 61.8263 22.6355C60.9947 22.2626 60.0991 22.0592 59.1076 22.0592C57.9562 22.0592 56.9007 22.3643 55.9411 22.9745C54.9816 23.5846 54.2459 24.3982 53.7022 25.4491C53.1585 26.4999 52.8706 27.6524 52.8706 28.9745C52.8706 30.2626 53.1585 31.4491 53.7022 32.4999C54.2779 33.5507 55.0456 34.3982 56.0371 35.0084C57.0286 35.6524 58.1801 35.9575 59.4914 35.9575C60.291 35.9575 61.0587 35.8219 61.7623 35.5507C62.466 35.2796 63.1057 34.9067 63.6494 34.466L65.9523 37.3135Z" fill="#1E150F"/>
<path d="M80.5373 39.7202C78.3304 39.7202 76.4113 39.2457 74.844 38.2965C73.2448 37.3474 72.0294 36.0592 71.1658 34.4321C70.3022 32.805 69.8544 30.9406 69.8544 28.805C69.8544 26.805 70.3342 24.9745 71.3257 23.3135C72.3172 21.6524 73.5966 20.3304 75.2279 19.3474C76.8591 18.3643 78.6502 17.8558 80.6333 17.8558C83.192 17.8558 85.303 18.6355 86.9982 20.2287C88.6934 21.8219 89.8448 23.9914 90.4525 26.7711L74.4602 32.7033L73.4367 29.9914L86.4864 24.9067L85.5909 25.5846C85.2071 24.4999 84.5994 23.5507 83.7358 22.7711C82.8722 21.9914 81.7207 21.5846 80.3134 21.5846C79.13 21.5846 78.0745 21.8897 77.1469 22.466C76.2194 23.0762 75.5157 23.8897 74.972 24.9067C74.4282 25.9575 74.1724 27.1779 74.1724 28.5338C74.1724 29.9236 74.4602 31.144 75.004 32.2626C75.5477 33.3474 76.3153 34.1948 77.3069 34.805C78.2984 35.4152 79.3859 35.7202 80.6333 35.7202C81.4649 35.7202 82.2965 35.5507 83.0961 35.2118C83.8957 34.8728 84.6313 34.466 85.367 33.9236L87.318 37.3474C86.3585 38.0253 85.271 38.6016 84.0556 39.0423C82.8722 39.5168 81.6888 39.7202 80.5373 39.7202Z" fill="#1E150F"/>
<path d="M99.3763 3.4491L110.507 33.0423L107.948 32.4999L118.471 3.4491H123.845L108.908 40.9067L93.9389 3.4491H99.3763Z" fill="#1E150F"/>
<path d="M127.459 11.3136C127.459 10.6017 127.747 9.99154 128.29 9.48307C128.834 8.97459 129.442 8.7373 130.082 8.7373C130.721 8.7373 131.329 8.97459 131.841 9.48307C132.384 9.99154 132.64 10.6017 132.64 11.3136C132.64 12.0593 132.384 12.7034 131.841 13.178C131.329 13.6526 130.721 13.8898 130.082 13.8898C129.442 13.8898 128.834 13.6526 128.29 13.178C127.715 12.6695 127.459 12.0593 127.459 11.3136ZM127.715 18.7373H132.097V39.2458H127.715V18.7373Z" fill="#1E150F"/>
<path d="M141.468 9.72021H145.914V18.8389H151.191V22.466H145.914V39.2456H141.468V22.4321H137.982V18.8389H141.468V9.72021Z" fill="#1E150F"/>
<path d="M164.433 39.7202C162.642 39.7202 160.979 39.3134 159.507 38.4999C158.036 37.6863 156.853 36.466 155.989 34.8728C155.125 33.2796 154.678 31.3134 154.678 29.0084C154.678 26.7033 155.125 24.7033 156.021 23.0762C156.917 21.4151 158.132 20.1609 159.667 19.2796C161.203 18.3982 162.866 17.9575 164.657 17.9575C166.48 17.9575 167.983 18.3982 169.263 19.2796C170.51 20.1609 171.47 21.1779 172.077 22.3643L171.789 23.1101L172.205 18.805H176.235V39.3134H171.885V33.8897L172.397 35.0762C172.237 35.4151 171.949 35.8219 171.502 36.3304C171.054 36.8389 170.51 37.3473 169.838 37.8897C169.167 38.4321 168.399 38.8389 167.472 39.2118C166.64 39.5507 165.584 39.7202 164.433 39.7202ZM165.616 35.9236C166.704 35.9236 167.695 35.7202 168.559 35.2795C169.423 34.8389 170.158 34.2287 170.734 33.449C171.31 32.6694 171.694 31.7202 171.917 30.6694V26.6694C171.662 25.6863 171.246 24.805 170.606 24.0592C169.998 23.3134 169.231 22.7372 168.367 22.3304C167.504 21.9236 166.544 21.7202 165.52 21.7202C164.337 21.7202 163.25 22.0253 162.29 22.6016C161.33 23.2118 160.563 24.0253 159.987 25.0762C159.411 26.127 159.124 27.3812 159.124 28.805C159.124 30.127 159.411 31.3134 160.019 32.4321C160.595 33.5168 161.394 34.3643 162.386 35.0084C163.377 35.5846 164.465 35.9236 165.616 35.9236Z" fill="#1E150F"/>
<path d="M183.752 0.906738H188.134V39.2457H183.752V0.906738Z" fill="#1E150F"/>
<path d="M195.618 0.906738H200V39.2457H195.618V0.906738Z" fill="#1E150F"/>
</g>
<defs>
<clipPath id="clip0_0_32">
<rect width="200" height="40" fill="white" transform="translate(0 0.906738)"/>
</clipPath>
</defs>
</svg>
