<svg width="300" height="76" viewBox="0 0 300 76" fill="none" xmlns="http://www.w3.org/2000/svg">
<g clip-path="url(#clip0_0_32)">
<path d="M0 5.67358H30.0816V14.2541H6.81273V35.61H27.2029V44.2541H6.81273V72.7287H0V5.67358Z" fill="#1E150F"/>
<path d="M46.3936 73.6821C43.7069 73.6821 41.2121 72.9194 39.0052 71.3939C36.7982 69.8685 35.0231 67.5804 33.7277 64.5931C32.3844 61.5423 31.7607 57.8558 31.7607 53.5338C31.7607 49.2117 32.4323 45.4617 33.7757 42.4109C35.1191 39.2965 36.9422 36.9448 39.2451 35.2287C41.548 33.5761 44.0428 32.7499 46.7295 32.7499C49.4162 32.7499 51.7191 33.5761 53.6382 35.2287C55.5093 36.8812 56.9486 38.788 57.8601 41.0126L57.4283 42.4109L58.052 34.3389H64.0971V72.7922H57.5723V62.7499L58.3399 64.9745C58.1 65.61 57.6682 66.3728 56.9966 67.3261C56.3249 68.2795 55.5093 69.2329 54.5017 70.2499C53.4942 71.2668 52.2948 72.0295 50.9515 72.7287C49.6561 73.3643 48.1208 73.6821 46.3936 73.6821ZM48.1208 66.5634C49.752 66.5634 51.2393 66.1821 52.5347 65.3558C53.8301 64.5295 54.9335 63.3855 55.7971 61.9236C56.6607 60.4617 57.2364 58.6821 57.5723 56.7117V49.2117C57.1885 47.3685 56.5648 45.716 55.6052 44.3177C54.6937 42.9194 53.5422 41.8389 52.2468 41.0761C50.9515 40.3134 49.5121 39.9321 47.9769 39.9321C46.2497 39.9321 44.6185 40.4406 43.1792 41.5846C41.7399 42.6651 40.5405 44.2541 39.6769 46.2245C38.8133 48.1948 38.3815 50.5465 38.3815 53.1524C38.3815 55.6312 38.8613 57.9194 39.7248 59.9533C40.5884 61.9872 41.7879 63.5761 43.2751 64.7838C44.8104 65.9278 46.3936 66.5634 48.1208 66.5634Z" fill="#1E150F"/>
<path d="M98.9285 69.1693C97.6331 70.5677 96.0499 71.7117 94.2267 72.538C92.4036 73.3643 90.5805 73.7456 88.7574 73.7456C85.6389 73.7456 82.8562 72.9193 80.4574 71.2668C78.0585 69.6143 76.1874 67.2626 74.7961 64.2117C73.4527 61.1609 72.781 57.6016 72.781 53.5338C72.781 49.466 73.5007 45.9066 74.94 42.9194C76.3793 39.9321 78.2504 37.5804 80.6013 35.9914C82.9042 34.3388 85.447 33.5126 88.1337 33.5126C90.4366 33.5126 92.4996 33.9575 94.3227 34.7838C96.1458 35.61 97.777 36.8177 99.1204 38.3431L95.81 43.9363C94.9944 43.11 93.9869 42.3473 92.7395 41.6482C91.4921 40.949 90.1487 40.5677 88.6614 40.5677C86.9342 40.5677 85.351 41.1397 83.9117 42.2838C82.4724 43.4278 81.3689 44.9532 80.5533 46.9236C79.7377 48.8939 79.3059 51.0549 79.3059 53.5338C79.3059 55.949 79.7377 58.1736 80.5533 60.1439C81.4169 62.1143 82.5683 63.7033 84.0556 64.8473C85.5429 66.0549 87.2701 66.627 89.2371 66.627C90.4366 66.627 91.588 66.3727 92.6435 65.8643C93.699 65.3558 94.6585 64.6566 95.4741 63.8304L98.9285 69.1693Z" fill="#1E150F"/>
<path d="M120.806 73.6822C117.496 73.6822 114.617 72.7923 112.266 71.0127C109.867 69.233 108.044 66.8177 106.749 63.7669C105.453 60.7161 104.782 57.2203 104.782 53.2161C104.782 49.4661 105.501 46.0339 106.989 42.9195C108.476 39.805 110.395 37.3262 112.842 35.483C115.289 33.6398 117.975 32.6864 120.95 32.6864C124.788 32.6864 127.955 34.1483 130.497 37.1356C133.04 40.1228 134.767 44.1906 135.679 49.4025L111.69 60.5254L110.155 55.4406L129.73 45.9067L128.386 47.1779C127.811 45.144 126.899 43.3644 125.604 41.9025C124.308 40.4406 122.581 39.6779 120.47 39.6779C118.695 39.6779 117.112 40.25 115.72 41.3305C114.329 42.4745 113.274 44 112.458 45.9067C111.642 47.8771 111.259 50.1652 111.259 52.7076C111.259 55.3135 111.69 57.6016 112.506 59.6991C113.322 61.733 114.473 63.322 115.96 64.4661C117.448 65.6101 119.079 66.1822 120.95 66.1822C122.197 66.1822 123.445 65.8644 124.644 65.2288C125.844 64.5932 126.947 63.8305 128.05 62.8135L130.977 69.233C129.538 70.5042 127.907 71.5847 126.083 72.411C124.308 73.3008 122.533 73.6822 120.806 73.6822Z" fill="#1E150F"/>
<path d="M149.064 5.67358L165.76 61.1609L161.922 60.1439L177.707 5.67358H185.767L163.362 75.9066L140.908 5.67358H149.064Z" fill="#1E150F"/>
<path d="M191.188 20.4194C191.188 19.0846 191.62 17.9406 192.436 16.9872C193.251 16.0338 194.163 15.5889 195.122 15.5889C196.082 15.5889 196.993 16.0338 197.761 16.9872C198.577 17.9406 198.961 19.0846 198.961 20.4194C198.961 21.8177 198.577 23.0253 197.761 23.9151C196.993 24.805 196.082 25.2499 195.122 25.2499C194.163 25.2499 193.251 24.805 192.436 23.9151C191.572 22.9617 191.188 21.8177 191.188 20.4194ZM191.572 34.3389H198.145V72.7923H191.572V34.3389Z" fill="#1E150F"/>
<path d="M212.202 17.4321H218.871V34.5296H226.787V41.3304H218.871V72.7923H212.202V41.2669H206.973V34.5296H212.202V17.4321Z" fill="#1E150F"/>
<path d="M246.65 73.6821C243.963 73.6821 241.468 72.9194 239.261 71.394C237.054 69.8686 235.279 67.5805 233.984 64.5932C232.688 61.6059 232.017 57.9194 232.017 53.5974C232.017 49.2754 232.688 45.5254 234.032 42.4745C235.375 39.3601 237.198 37.0084 239.501 35.3559C241.804 33.7033 244.299 32.8771 246.985 32.8771C249.72 32.8771 251.975 33.7033 253.894 35.3559C255.765 37.0084 257.204 38.9152 258.116 41.1398L257.684 42.5381L258.308 34.4661H264.353V72.9194H257.828V62.7499L258.596 64.9745C258.356 65.6101 257.924 66.3728 257.252 67.3262C256.581 68.2796 255.765 69.233 254.758 70.2499C253.75 71.2669 252.599 72.0296 251.207 72.7288C249.96 73.3644 248.377 73.6821 246.65 73.6821ZM248.425 66.5635C250.056 66.5635 251.543 66.1822 252.839 65.3559C254.134 64.5296 255.237 63.3855 256.101 61.9237C256.965 60.4618 257.54 58.6822 257.876 56.7118V49.2118C257.492 47.3686 256.869 45.7161 255.909 44.3177C254.998 42.9194 253.846 41.8389 252.551 41.0762C251.255 40.3135 249.816 39.9322 248.281 39.9322C246.506 39.9322 244.874 40.5042 243.435 41.5847C241.996 42.7288 240.844 44.2542 239.981 46.2245C239.117 48.1949 238.685 50.5466 238.685 53.216C238.685 55.6949 239.117 57.9194 240.029 60.0169C240.892 62.0508 242.092 63.6398 243.579 64.8474C245.066 65.9279 246.697 66.5635 248.425 66.5635Z" fill="#1E150F"/>
<path d="M275.628 0.90564H282.201V72.7912H275.628V0.90564Z" fill="#1E150F"/>
<path d="M293.427 0.90564H300V72.7912H293.427V0.90564Z" fill="#1E150F"/>
</g>
<defs>
<clipPath id="clip0_0_32">
<rect width="300" height="75" fill="white" transform="translate(0 0.906738)"/>
</clipPath>
</defs>
</svg>
